<svg xmlns="http://www.w3.org/2000/svg" width="400" height="450" viewBox="0, 0, 400,450" version="1.1">
    <style>
        path {
        fill: #000000;
        }
        .dark path {
        fill: #ffffff;
        }
        @media ( prefers-color-scheme: dark ) {
        path {
        fill: #ffffff;
        }
        }
    </style>
    <g>
        <path d="M115.305 58.185 C 103.840 61.183,86.731 66.728,77.286 70.508 L 60.112 77.382 50.566 93.186 C 15.886 150.602,2.125 198.096,0.536 265.863 L -0.436 307.312 17.153 318.682 C 39.682 333.244,64.235 345.520,86.120 353.162 C 106.043 360.119,103.043 361.485,116.310 339.412 C 126.472 322.504,126.420 322.325,108.920 314.326 C 100.657 310.549,93.897 306.705,93.897 305.783 C 93.897 301.676,100.590 302.625,121.375 309.681 C 176.920 328.535,234.768 327.531,287.617 306.796 C 299.366 302.187,306.103 301.818,306.103 305.783 C 306.103 306.705,299.399 310.523,291.206 314.268 C 283.012 318.014,275.880 321.771,275.356 322.618 C 274.479 324.038,285.893 344.484,293.325 354.806 L 296.508 359.228 313.849 353.173 C 341.156 343.637,392.584 315.813,398.689 307.272 C 401.806 302.911,398.664 225.536,394.569 205.818 C 386.000 164.558,367.022 118.725,344.272 84.346 C 337.914 74.739,294.640 58.040,264.316 53.493 L 255.556 52.179 250.369 62.756 L 245.181 73.332 233.858 71.964 C 219.278 70.202,180.722 70.202,166.142 71.964 L 154.819 73.332 149.730 62.957 C 143.660 50.580,144.139 50.647,115.305 58.185 M149.340 185.460 C 164.394 193.613,172.614 215.919,166.877 233.053 C 153.339 273.488,99.262 263.574,99.262 220.657 C 99.262 191.754,126.113 172.882,149.340 185.460 M281.690 185.066 C 293.493 191.025,301.120 204.995,301.120 220.657 C 301.120 261.531,254.008 274.911,235.954 239.164 C 219.594 206.771,251.030 169.587,281.690 185.066 "/>
    </g>
</svg>