<?xml version="1.0" encoding="utf-8"?>
<svg viewBox="560.465 292.92 161.033 157.057" xmlns="http://www.w3.org/2000/svg">
    <style>
        path {
        fill: #000000;
        }
        .dark path {
        fill: #ffffff;
        }
        @media ( prefers-color-scheme: dark ) {
        path {
        fill: #ffffff;
        }
        }
    </style>
    <path d="m 3506.09,2175.54 c -333.47,0 -603.88,-270.35 -603.88,-603.87 0,-266.81 173.03,-493.17 412.97,-573.022 30.18,-5.589 41.26,13.102 41.26,29.052 0,14.4 -0.56,61.97 -0.82,112.43 -168,-36.53 -203.45,71.25 -203.45,71.25 -27.47,69.8 -67.05,88.36 -67.05,88.36 -54.79,37.48 4.13,36.71 4.13,36.71 60.64,-4.25 92.57,-62.23 92.57,-62.23 53.86,-92.32 141.27,-65.63 175.73,-50.2 5.42,39.02 21.07,65.68 38.34,80.75 -134.13,15.27 -275.13,67.05 -275.13,298.44 0,65.93 23.59,119.8 62.22,162.09 -6.27,15.22 -26.94,76.63 5.85,159.81 0,0 50.71,16.23 166.11,-61.9 48.17,13.38 99.83,20.09 151.15,20.32 51.32,-0.23 103.02,-6.94 151.28,-20.32 115.26,78.13 165.9,61.9 165.9,61.9 32.87,-83.18 12.19,-144.59 5.92,-159.81 38.72,-42.29 62.15,-96.16 62.15,-162.09 0,-231.94 -141.27,-283.01 -275.74,-297.96 21.66,-18.74 40.96,-55.49 40.96,-111.83 0,-80.79 -0.7,-145.82 -0.7,-165.72 0,-16.07 10.87,-34.899 41.48,-28.97 239.81,79.94 412.62,306.22 412.62,572.94 0,333.52 -270.37,603.87 -603.87,603.87"
          transform="matrix(0.133333, 0, 0, -0.133333, 173.503433, 582.991943)"/>
</svg>