<svg version="1.1"
     baseProfile="full"
     xmlns="http://www.w3.org/2000/svg"
     width="200px" height="200px" viewBox="0 0 200 200"
     preserveAspectRatio="xMidYMid meet">
    <style>
        path {
        fill: #64748b;
        }
        @media ( prefers-color-scheme: dark ) {
        path {
        fill: #9b8b74;
        }
        }
    </style>
    <g transform="translate(0,200) scale(0.1,-0.1)" stroke="none">
        <path d="M465 1785 l-25 -24 0 -353 c0 -304 2 -357 16 -376 15 -22 19 -22 235
-22 l219 0 0 -85 0 -85 -40 0 c-22 0 -40 -4 -40 -10 0 -6 68 -10 185 -10 117
0 185 4 185 10 0 6 -18 10 -40 10 l-41 0 3 83 3 82 214 3 c182 2 218 5 233 19
17 15 18 42 18 377 0 199 -4 366 -8 372 -21 32 -52 34 -572 34 l-521 0 -24
-25z m1095 -24 c6 -13 10 -144 10 -360 0 -295 -2 -342 -16 -355 -14 -14 -76
-16 -538 -16 -393 0 -525 3 -534 12 -9 9 -12 105 -12 368 0 196 3 360 7 363 3
4 246 7 539 7 517 0 534 -1 544 -19z m-462 -838 l3 -83 -81 0 -80 0 0 85 0 86
78 -3 77 -3 3 -82z"/>
        <path d="M1080 1598 c-6 -13 -44 -106 -84 -208 -66 -166 -82 -220 -55 -193 10
10 169 401 169 415 0 17 -21 7 -30 -14z"/>
        <path d="M698 1482 c-65 -36 -118 -71 -118 -76 0 -14 249 -150 258 -141 10 9
-17 27 -125 86 -51 28 -93 52 -93 54 0 2 50 32 110 65 100 56 131 81 98 79 -7
0 -66 -30 -130 -67z"/>
        <path d="M1190 1542 c0 -5 47 -35 105 -66 58 -32 107 -62 110 -66 3 -5 -44
-37 -105 -70 -97 -55 -130 -80 -101 -80 15 0 256 138 256 147 0 9 -235 143
-252 143 -7 0 -13 -4 -13 -8z"/>
        <path d="M407 574 c-10 -11 3 -24 23 -24 18 0 20 -10 22 -177 3 -150 5 -178
18 -178 12 0 16 26 20 155 l5 154 120 -154 c67 -85 127 -155 135 -155 13 0 15
30 18 178 l2 177 26 0 c16 0 24 5 22 13 -6 17 -130 17 -135 0 -3 -8 5 -13 21
-13 l26 0 0 -147 c-1 -118 -3 -145 -13 -132 -7 8 -63 81 -126 162 -104 134
-117 147 -146 147 -17 0 -35 -3 -38 -6z"/>
        <path d="M850 570 c0 -5 34 -48 76 -95 l77 -86 -20 -22 c-93 -105 -143 -165
-143 -170 0 -20 32 -2 65 36 21 23 56 62 78 86 l41 45 81 -89 c52 -56 86 -86
94 -81 8 5 -15 37 -69 97 -44 49 -80 93 -80 97 1 4 34 45 75 92 41 47 75 88
75 92 0 26 -37 -3 -100 -77 -51 -59 -77 -82 -85 -75 -6 5 -40 43 -75 85 -59
68 -90 91 -90 65z"/>
        <path d="M1230 540 c0 -29 4 -40 15 -40 9 0 15 9 15 25 0 24 2 25 65 25 l65 0
0 -180 c0 -153 2 -180 15 -180 13 0 15 27 15 180 l0 180 65 0 c63 0 65 -1 65
-25 0 -16 6 -25 16 -25 12 0 14 9 12 38 l-3 37 -172 3 -173 2 0 -40z"/>
    </g>
</svg>
